<svg xmlns="http://www.w3.org/2000/svg" xmlns:xlink="http://www.w3.org/1999/xlink" width="1000" height="750" viewBox="0 0 1000 750"><title>Gnuplot</title><desc>Produced by GNUPLOT 5.4 patchlevel 2</desc><g id="gnuplot_canvas"><rect width="1000" height="750" x="0" y="0" fill="#fff"/><defs><circle id="gpDot" r=".5" stroke="currentColor" stroke-width=".5"/><path id="gpPt0" stroke="currentColor" stroke-width=".222" d="M-1,0 h2 M0,-1 v2"/><path id="gpPt1" stroke="currentColor" stroke-width=".222" d="M-1,-1 L1,1 M1,-1 L-1,1"/><path id="gpPt2" stroke="currentColor" stroke-width=".222" d="M-1,0 L1,0 M0,-1 L0,1 M-1,-1 L1,1 M-1,1 L1,-1"/><rect id="gpPt3" width="2" height="2" x="-1" y="-1" stroke="currentColor" stroke-width=".222"/><rect id="gpPt4" width="2" height="2" x="-1" y="-1" fill="currentColor" stroke="currentColor" stroke-width=".222"/><circle id="gpPt5" cx="0" cy="0" r="1" stroke="currentColor" stroke-width=".222"/><use id="gpPt6" fill="currentColor" stroke="none" xlink:href="#gpPt5"/><path id="gpPt7" stroke="currentColor" stroke-width=".222" d="M0,-1.33 L-1.33,0.67 L1.33,0.67 z"/><use id="gpPt8" fill="currentColor" stroke="none" xlink:href="#gpPt7"/><use id="gpPt9" stroke="currentColor" transform="rotate(180)" xlink:href="#gpPt7"/><use id="gpPt10" fill="currentColor" stroke="none" xlink:href="#gpPt9"/><use id="gpPt11" stroke="currentColor" transform="rotate(45)" xlink:href="#gpPt3"/><use id="gpPt12" fill="currentColor" stroke="none" xlink:href="#gpPt11"/><path id="gpPt13" stroke="currentColor" stroke-width=".222" d="M0,1.330 L1.265,0.411 L0.782,-1.067 L-0.782,-1.076 L-1.265,0.411 z"/><use id="gpPt14" fill="currentColor" stroke="none" xlink:href="#gpPt13"/><filter id="textbox" width="1" height="1" x="0" y="0" filterUnits="objectBoundingBox"><feFlood flood-color="#FFF" flood-opacity="1" result="bgnd"/><feComposite in="SourceGraphic" in2="bgnd" operator="atop"/></filter><filter id="greybox" width="1" height="1" x="0" y="0" filterUnits="objectBoundingBox"><feFlood flood-color="#d3d3d3" flood-opacity="1" result="grey"/><feComposite in="SourceGraphic" in2="grey" operator="atop"/></filter></defs><g fill="none" stroke="currentColor" stroke-linecap="butt" stroke-linejoin="miter" stroke-width="1" color="#000"><path stroke="#000" d="M72.53,559.96 L81.53,559.96 M974.82,559.96 L965.82,559.96"/><g fill="#000" stroke="none" font-family="Arial" font-size="12" text-anchor="end"><text transform="translate(64.14,563.86)">0</text></g></g><g fill="none" stroke="currentColor" stroke-linecap="butt" stroke-linejoin="miter" stroke-width="1" color="#000"><path stroke="#000" d="M72.53,487.68 L81.53,487.68 M974.82,487.68 L965.82,487.68"/><g fill="#000" stroke="none" font-family="Arial" font-size="12" text-anchor="end"><text transform="translate(64.14,491.58)">20</text></g></g><g fill="none" stroke="currentColor" stroke-linecap="butt" stroke-linejoin="miter" stroke-width="1" color="#000"><path stroke="#000" d="M72.53,415.40 L81.53,415.40 M974.82,415.40 L965.82,415.40"/><g fill="#000" stroke="none" font-family="Arial" font-size="12" text-anchor="end"><text transform="translate(64.14,419.30)">40</text></g></g><g fill="none" stroke="currentColor" stroke-linecap="butt" stroke-linejoin="miter" stroke-width="1" color="#000"><path stroke="#000" d="M72.53,343.12 L81.53,343.12 M974.82,343.12 L965.82,343.12"/><g fill="#000" stroke="none" font-family="Arial" font-size="12" text-anchor="end"><text transform="translate(64.14,347.02)">60</text></g></g><g fill="none" stroke="currentColor" stroke-linecap="butt" stroke-linejoin="miter" stroke-width="1" color="#000"><path stroke="#000" d="M72.53,270.85 L81.53,270.85 M974.82,270.85 L965.82,270.85"/><g fill="#000" stroke="none" font-family="Arial" font-size="12" text-anchor="end"><text transform="translate(64.14,274.75)">80</text></g></g><g fill="none" stroke="currentColor" stroke-linecap="butt" stroke-linejoin="miter" stroke-width="1" color="#000"><path stroke="#000" d="M72.53,198.57 L81.53,198.57 M974.82,198.57 L965.82,198.57"/><g fill="#000" stroke="none" font-family="Arial" font-size="12" text-anchor="end"><text transform="translate(64.14,202.47)">100</text></g></g><g fill="none" stroke="currentColor" stroke-linecap="butt" stroke-linejoin="miter" stroke-width="1" color="#000"><path stroke="#000" d="M72.53,126.29 L81.53,126.29 M974.82,126.29 L965.82,126.29"/><g fill="#000" stroke="none" font-family="Arial" font-size="12" text-anchor="end"><text transform="translate(64.14,130.19)">120</text></g></g><g fill="none" stroke="currentColor" stroke-linecap="butt" stroke-linejoin="miter" stroke-width="1" color="#000"><path stroke="#000" d="M72.53,54.01 L81.53,54.01 M974.82,54.01 L965.82,54.01"/><g fill="#000" stroke="none" font-family="Arial" font-size="12" text-anchor="end"><text transform="translate(64.14,57.91)">140</text></g></g><g fill="none" stroke="currentColor" stroke-linecap="butt" stroke-linejoin="miter" stroke-width="1" color="#000"><path stroke="#000" d="M127.08,559.96 M127.08,54.01"/><g fill="#000" stroke="none" font-family="Arial" font-size="12" text-anchor="start"><text transform="translate(124.32,571.11) rotate(-315)">cursor_motion</text></g></g><g fill="none" stroke="currentColor" stroke-linecap="butt" stroke-linejoin="miter" stroke-width="1" color="#000"><path stroke="#000" d="M215.54,559.96 M215.54,54.01"/><g fill="#000" stroke="none" font-family="Arial" font-size="12" text-anchor="start"><text transform="translate(212.78,571.11) rotate(-315)">dense_cells</text></g></g><g fill="none" stroke="currentColor" stroke-linecap="butt" stroke-linejoin="miter" stroke-width="1" color="#000"><path stroke="#000" d="M304.00,559.96 M304.00,54.01"/><g fill="#000" stroke="none" font-family="Arial" font-size="12" text-anchor="start"><text transform="translate(301.24,571.11) rotate(-315)">light_cells</text></g></g><g fill="none" stroke="currentColor" stroke-linecap="butt" stroke-linejoin="miter" stroke-width="1" color="#000"><path stroke="#000" d="M392.46,559.96 M392.46,54.01"/><g fill="#000" stroke="none" font-family="Arial" font-size="12" text-anchor="start"><text transform="translate(389.70,571.11) rotate(-315)">scrolling</text></g></g><g fill="none" stroke="currentColor" stroke-linecap="butt" stroke-linejoin="miter" stroke-width="1" color="#000"><path stroke="#000" d="M480.92,559.96 M480.92,54.01"/><g fill="#000" stroke="none" font-family="Arial" font-size="12" text-anchor="start"><text transform="translate(478.16,571.11) rotate(-315)">scrolling_bottom_region</text></g></g><g fill="none" stroke="currentColor" stroke-linecap="butt" stroke-linejoin="miter" stroke-width="1" color="#000"><path stroke="#000" d="M569.38,559.96 M569.38,54.01"/><g fill="#000" stroke="none" font-family="Arial" font-size="12" text-anchor="start"><text transform="translate(566.62,571.11) rotate(-315)">scrolling_bottom_small_region</text></g></g><g fill="none" stroke="currentColor" stroke-linecap="butt" stroke-linejoin="miter" stroke-width="1" color="#000"><path stroke="#000" d="M657.84,559.96 M657.84,54.01"/><g fill="#000" stroke="none" font-family="Arial" font-size="12" text-anchor="start"><text transform="translate(655.08,571.11) rotate(-315)">scrolling_fullscreen</text></g></g><g fill="none" stroke="currentColor" stroke-linecap="butt" stroke-linejoin="miter" stroke-width="1" color="#000"><path stroke="#000" d="M746.30,559.96 M746.30,54.01"/><g fill="#000" stroke="none" font-family="Arial" font-size="12" text-anchor="start"><text transform="translate(743.54,571.11) rotate(-315)">scrolling_top_region</text></g></g><g fill="none" stroke="currentColor" stroke-linecap="butt" stroke-linejoin="miter" stroke-width="1" color="#000"><path stroke="#000" d="M834.76,559.96 M834.76,54.01"/><g fill="#000" stroke="none" font-family="Arial" font-size="12" text-anchor="start"><text transform="translate(832.00,571.11) rotate(-315)">scrolling_top_small_region</text></g></g><g fill="none" stroke="currentColor" stroke-linecap="butt" stroke-linejoin="miter" stroke-width="1" color="#000"><path stroke="#000" d="M923.22,559.96 M923.22,54.01"/><g fill="#000" stroke="none" font-family="Arial" font-size="12" text-anchor="start"><text transform="translate(920.46,571.11) rotate(-315)">unicode</text></g></g><g fill="none" stroke="currentColor" stroke-linecap="butt" stroke-linejoin="miter" stroke-width="1" color="#000"><path stroke="#000" d="M72.53,54.01 L72.53,559.96 L974.82,559.96 L974.82,54.01 L72.53,54.01 Z"/><path stroke="#888" stroke-dasharray="1 2.5" d="M171.32,559.95 L171.32,54.00 M259.78,559.95 L259.78,54.00 M348.24,559.95 L348.24,54.00 M436.70,559.95 L436.70,54.00 M525.16,559.95 L525.16,54.00 M613.62,559.95 L613.62,54.00 M702.08,559.95 L702.08,54.00 M790.54,559.95 L790.54,54.00 M879.00,559.95 L879.00,54.00"/></g><g fill="none" stroke="currentColor" stroke-linecap="butt" stroke-linejoin="miter" stroke-width="1" color="#000"><g fill="#000" stroke="none" font-family="Arial" font-size="12" text-anchor="middle"><text transform="translate(19.18,306.99) rotate(270)">milliseconds (lower is better)</text></g></g><g id="gnuplot_plot_1"><title>gnuplot_plot_1</title><g fill="none" stroke="currentColor" stroke-linecap="butt" stroke-linejoin="miter" stroke-width="1" color="#000"><g fill="#000" stroke="none" font-family="Arial" font-size="12" text-anchor="end"><text transform="translate(947.06,21.90)">2021-09-22T01:10:55Z_alacritty_0.10.0-dev_(74bbec9e).dat</text></g></g><g fill="none" stroke="currentColor" stroke-linecap="butt" stroke-linejoin="miter" stroke-width="1" color="#000"><g stroke="none" shape-rendering="crispEdges"><polygon fill="#9400D3" fill-opacity=".25" points="955.45 22.5 998.01 22.5 998.01 13.5 955.45 13.5"/><polygon fill="#9400D3" fill-opacity=".25" points="99.07 426.24 125.61 426.24 125.61 422.63 99.07 422.63"/></g><path stroke="#9400D3" d="M99.07,426.24 L125.61,426.24 L125.61,422.63 L99.07,422.63 L99.07,426.24 Z"/><path stroke="#9400D3" d="M99.07,422.63 L125.61,422.63 M112.34,429.86 L112.34,426.24 M112.34,422.63 L112.34,419.02 M103.34,419.02 L121.34,419.02 M103.34,429.86 L121.34,429.86"/></g></g><g id="gnuplot_plot_2"><title>gnuplot_plot_2</title><g fill="none" stroke="currentColor" stroke-linecap="butt" stroke-linejoin="miter" stroke-width="1" color="#000"><g stroke="none" shape-rendering="crispEdges"><polygon fill="#9400D3" fill-opacity=".25" points="187.53 133.52 214.07 133.52 214.07 122.67 187.53 122.67"/></g><path stroke="#9400D3" d="M187.53,133.52 L214.07,133.52 L214.07,122.67 L187.53,122.67 L187.53,133.52 Z"/><path stroke="#9400D3" d="M187.53,129.90 L214.07,129.90 M200.80,147.97 L200.80,133.52 M200.80,122.67 L200.80,108.22 M191.80,108.22 L209.80,108.22 M191.80,147.97 L209.80,147.97"/></g></g><g id="gnuplot_plot_3"><title>gnuplot_plot_3</title><g fill="none" stroke="currentColor" stroke-linecap="butt" stroke-linejoin="miter" stroke-width="1" color="#000"><g stroke="none" shape-rendering="crispEdges"><polygon fill="#9400D3" fill-opacity=".25" points="275.99 494.91 302.53 494.91 302.53 491.3 275.99 491.3"/></g><path stroke="#9400D3" d="M275.99,494.91 L302.53,494.91 L302.53,491.30 L275.99,491.30 L275.99,494.91 Z"/><path stroke="#9400D3" d="M275.99,494.91 L302.53,494.91 M289.26,498.52 L289.26,494.91 M289.26,491.30 L289.26,487.68 M280.26,487.68 L298.26,487.68 M280.26,498.52 L298.26,498.52"/></g></g><g id="gnuplot_plot_4"><title>gnuplot_plot_4</title><g fill="none" stroke="currentColor" stroke-linecap="butt" stroke-linejoin="miter" stroke-width="1" color="#000"><g stroke="none" shape-rendering="crispEdges"><polygon fill="#9400D3" fill-opacity=".25" points="364.45 129.9 390.99 129.9 390.99 122.67 364.45 122.67"/></g><path stroke="#9400D3" d="M364.45,129.90 L390.99,129.90 L390.99,122.67 L364.45,122.67 L364.45,129.90 Z"/><path stroke="#9400D3" d="M364.45,126.29 L390.99,126.29 M377.72,137.13 L377.72,129.90 M377.72,122.67 L377.72,111.83 M368.72,111.83 L386.72,111.83 M368.72,137.13 L386.72,137.13"/></g></g><g id="gnuplot_plot_5"><title>gnuplot_plot_5</title><g fill="none" stroke="currentColor" stroke-linecap="butt" stroke-linejoin="miter" stroke-width="1" color="#000"><g stroke="none" shape-rendering="crispEdges"><polygon fill="#9400D3" fill-opacity=".25" points="452.91 126.29 479.45 126.29 479.45 122.67 452.91 122.67"/></g><path stroke="#9400D3" d="M452.91,126.29 L479.45,126.29 L479.45,122.67 L452.91,122.67 L452.91,126.29 Z"/><path stroke="#9400D3" d="M452.91,126.29 L479.45,126.29 M466.18,129.90 L466.18,126.29 M466.18,122.67 L466.18,119.06 M457.18,119.06 L475.18,119.06 M457.18,129.90 L475.18,129.90"/></g></g><g id="gnuplot_plot_6"><title>gnuplot_plot_6</title><g fill="none" stroke="currentColor" stroke-linecap="butt" stroke-linejoin="miter" stroke-width="1" color="#000"><g stroke="none" shape-rendering="crispEdges"><polygon fill="#9400D3" fill-opacity=".25" points="541.37 122.67 567.91 122.67 567.91 122.67 541.37 122.67"/></g><path stroke="#9400D3" d="M541.37,122.67 L567.91,122.67 L541.37,122.67 Z"/><path stroke="#9400D3" d="M541.37,122.67 L567.91,122.67 M554.64,122.67 M545.64,122.67 L563.64,122.67 M545.64,122.67 L563.64,122.67"/></g></g><g id="gnuplot_plot_7"><title>gnuplot_plot_7</title><g fill="none" stroke="currentColor" stroke-linecap="butt" stroke-linejoin="miter" stroke-width="1" color="#000"><g stroke="none" shape-rendering="crispEdges"><polygon fill="#9400D3" fill-opacity=".25" points="629.83 512.98 656.37 512.98 656.37 509.36 629.83 509.36"/></g><path stroke="#9400D3" d="M629.83,512.98 L656.37,512.98 L656.37,509.36 L629.83,509.36 L629.83,512.98 Z"/><path stroke="#9400D3" d="M629.83,509.36 L656.37,509.36 M643.10,516.59 L643.10,512.98 M643.10,509.36 L643.10,505.75 M634.10,505.75 L652.10,505.75 M634.10,516.59 L652.10,516.59"/></g></g><g id="gnuplot_plot_8"><title>gnuplot_plot_8</title><g fill="none" stroke="currentColor" stroke-linecap="butt" stroke-linejoin="miter" stroke-width="1" color="#000"><g stroke="none" shape-rendering="crispEdges"><polygon fill="#9400D3" fill-opacity=".25" points="718.29 129.9 744.83 129.9 744.83 126.29 718.29 126.29"/></g><path stroke="#9400D3" d="M718.29,129.90 L744.83,129.90 L744.83,126.29 L718.29,126.29 L718.29,129.90 Z"/><path stroke="#9400D3" d="M718.29,126.29 L744.83,126.29 M731.56,133.52 L731.56,129.90 M731.56,126.29 L731.56,122.67 M722.56,122.67 L740.56,122.67 M722.56,133.52 L740.56,133.52"/></g></g><g id="gnuplot_plot_9"><title>gnuplot_plot_9</title><g fill="none" stroke="currentColor" stroke-linecap="butt" stroke-linejoin="miter" stroke-width="1" color="#000"><g stroke="none" shape-rendering="crispEdges"><polygon fill="#9400D3" fill-opacity=".25" points="806.75 122.67 833.29 122.67 833.29 119.06 806.75 119.06"/></g><path stroke="#9400D3" d="M806.75,122.67 L833.29,122.67 L833.29,119.06 L806.75,119.06 L806.75,122.67 Z"/><path stroke="#9400D3" d="M806.75,122.67 L833.29,122.67 M820.02,126.29 L820.02,122.67 M820.02,119.06 L820.02,115.45 M811.02,115.45 L829.02,115.45 M811.02,126.29 L829.02,126.29"/></g></g><g id="gnuplot_plot_10"><title>gnuplot_plot_10</title><g fill="none" stroke="currentColor" stroke-linecap="butt" stroke-linejoin="miter" stroke-width="1" color="#000"><g stroke="none" shape-rendering="crispEdges"><polygon fill="#9400D3" fill-opacity=".25" points="895.21 498.52 921.75 498.52 921.75 498.52 895.21 498.52"/></g><path stroke="#9400D3" d="M895.21,498.52 L921.75,498.52 L895.21,498.52 Z"/><path stroke="#9400D3" d="M895.21,498.52 L921.75,498.52 M908.48,498.52 M899.48,498.52 L917.48,498.52 M899.48,498.52 L917.48,498.52"/></g></g><g id="gnuplot_plot_11"><title>gnuplot_plot_11</title><g fill="none" stroke="currentColor" stroke-linecap="butt" stroke-linejoin="miter" stroke-width="1" color="#000"><g fill="#000" stroke="none" font-family="Arial" font-size="12" text-anchor="end"><text transform="translate(947.06,39.90)">/home/perfbot/termbenchbot/results/alacritty/master/2021-08-28T02:10:35Z_alacritty_0.10.0-dev_(cf35a201).dat</text></g></g><g fill="none" stroke="currentColor" stroke-linecap="butt" stroke-linejoin="miter" stroke-width="1" color="#000"><g stroke="none" shape-rendering="crispEdges"><polygon fill="#009E73" fill-opacity=".25" points="955.45 40.5 998.01 40.5 998.01 31.5 955.45 31.5"/><polygon fill="#009E73" fill-opacity=".25" points="128.55 440.7 155.09 440.7 155.09 437.09 128.55 437.09"/></g><path stroke="#009E73" d="M128.55,440.70 L155.09,440.70 L155.09,437.09 L128.55,437.09 L128.55,440.70 Z"/><path stroke="#009E73" d="M128.55,437.09 L155.09,437.09 M141.82,444.31 L141.82,440.70 M141.82,437.09 L141.82,433.47 M132.82,433.47 L150.82,433.47 M132.82,444.31 L150.82,444.31"/></g></g><g id="gnuplot_plot_12"><title>gnuplot_plot_12</title><g fill="none" stroke="currentColor" stroke-linecap="butt" stroke-linejoin="miter" stroke-width="1" color="#000"><g stroke="none" shape-rendering="crispEdges"><polygon fill="#009E73" fill-opacity=".25" points="217.01 176.88 243.55 176.88 243.55 169.66 217.01 169.66"/></g><path stroke="#009E73" d="M217.01,176.88 L243.55,176.88 L243.55,169.66 L217.01,169.66 L217.01,176.88 Z"/><path stroke="#009E73" d="M217.01,173.27 L243.55,173.27 M230.28,187.73 L230.28,176.88 M230.28,169.66 L230.28,158.81 M221.28,158.81 L239.28,158.81 M221.28,187.73 L239.28,187.73"/></g></g><g id="gnuplot_plot_13"><title>gnuplot_plot_13</title><g fill="none" stroke="currentColor" stroke-linecap="butt" stroke-linejoin="miter" stroke-width="1" color="#000"><g stroke="none" shape-rendering="crispEdges"><polygon fill="#009E73" fill-opacity=".25" points="305.47 502.14 332.01 502.14 332.01 498.52 305.47 498.52"/></g><path stroke="#009E73" d="M305.47,502.14 L332.01,502.14 L332.01,498.52 L305.47,498.52 L305.47,502.14 Z"/><path stroke="#009E73" d="M305.47,498.52 L332.01,498.52 M318.74,505.75 L318.74,502.14 M318.74,498.52 L318.74,494.91 M309.74,494.91 L327.74,494.91 M309.74,505.75 L327.74,505.75"/></g></g><g id="gnuplot_plot_14"><title>gnuplot_plot_14</title><g fill="none" stroke="currentColor" stroke-linecap="butt" stroke-linejoin="miter" stroke-width="1" color="#000"><g stroke="none" shape-rendering="crispEdges"><polygon fill="#009E73" fill-opacity=".25" points="393.93 115.45 420.47 115.45 420.47 111.83 393.93 111.83"/></g><path stroke="#009E73" d="M393.93,115.45 L420.47,115.45 L420.47,111.83 L393.93,111.83 L393.93,115.45 Z"/><path stroke="#009E73" d="M393.93,115.45 L420.47,115.45 M407.20,119.06 L407.20,115.45 M407.20,111.83 L407.20,108.22 M398.20,108.22 L416.20,108.22 M398.20,119.06 L416.20,119.06"/></g></g><g id="gnuplot_plot_15"><title>gnuplot_plot_15</title><g fill="none" stroke="currentColor" stroke-linecap="butt" stroke-linejoin="miter" stroke-width="1" color="#000"><g stroke="none" shape-rendering="crispEdges"><polygon fill="#009E73" fill-opacity=".25" points="482.39 115.45 508.93 115.45 508.93 111.83 482.39 111.83"/></g><path stroke="#009E73" d="M482.39,115.45 L508.93,115.45 L508.93,111.83 L482.39,111.83 L482.39,115.45 Z"/><path stroke="#009E73" d="M482.39,111.83 L508.93,111.83 M495.66,119.06 L495.66,115.45 M495.66,111.83 L495.66,108.22 M486.66,108.22 L504.66,108.22 M486.66,119.06 L504.66,119.06"/></g></g><g id="gnuplot_plot_16"><title>gnuplot_plot_16</title><g fill="none" stroke="currentColor" stroke-linecap="butt" stroke-linejoin="miter" stroke-width="1" color="#000"><g stroke="none" shape-rendering="crispEdges"><polygon fill="#009E73" fill-opacity=".25" points="570.85 108.22 597.39 108.22 597.39 100.99 570.85 100.99"/></g><path stroke="#009E73" d="M570.85,108.22 L597.39,108.22 L597.39,100.99 L570.85,100.99 L570.85,108.22 Z"/><path stroke="#009E73" d="M570.85,104.60 L597.39,104.60 M584.12,115.45 L584.12,108.22 M584.12,100.99 L584.12,93.76 M575.12,93.76 L593.12,93.76 M575.12,115.45 L593.12,115.45"/></g></g><g id="gnuplot_plot_17"><title>gnuplot_plot_17</title><g fill="none" stroke="currentColor" stroke-linecap="butt" stroke-linejoin="miter" stroke-width="1" color="#000"><g stroke="none" shape-rendering="crispEdges"><polygon fill="#009E73" fill-opacity=".25" points="659.31 516.59 685.85 516.59 685.85 516.59 659.31 516.59"/></g><path stroke="#009E73" d="M659.31,516.59 L685.85,516.59 L659.31,516.59 Z"/><path stroke="#009E73" d="M659.31,516.59 L685.85,516.59 M672.58,516.59 M663.58,516.59 L681.58,516.59 M663.58,516.59 L681.58,516.59"/></g></g><g id="gnuplot_plot_18"><title>gnuplot_plot_18</title><g fill="none" stroke="currentColor" stroke-linecap="butt" stroke-linejoin="miter" stroke-width="1" color="#000"><g stroke="none" shape-rendering="crispEdges"><polygon fill="#009E73" fill-opacity=".25" points="747.77 111.83 774.31 111.83 774.31 108.22 747.77 108.22"/></g><path stroke="#009E73" d="M747.77,111.83 L774.31,111.83 L774.31,108.22 L747.77,108.22 L747.77,111.83 Z"/><path stroke="#009E73" d="M747.77,111.83 L774.31,111.83 M761.04,115.45 L761.04,111.83 M761.04,108.22 L761.04,104.60 M752.04,104.60 L770.04,104.60 M752.04,115.45 L770.04,115.45"/></g></g><g id="gnuplot_plot_19"><title>gnuplot_plot_19</title><g fill="none" stroke="currentColor" stroke-linecap="butt" stroke-linejoin="miter" stroke-width="1" color="#000"><g stroke="none" shape-rendering="crispEdges"><polygon fill="#009E73" fill-opacity=".25" points="836.23 108.22 862.77 108.22 862.77 100.99 836.23 100.99"/></g><path stroke="#009E73" d="M836.23,108.22 L862.77,108.22 L862.77,100.99 L836.23,100.99 L836.23,108.22 Z"/><path stroke="#009E73" d="M836.23,104.60 L862.77,104.60 M849.50,115.45 L849.50,108.22 M849.50,100.99 L849.50,90.15 M840.50,90.15 L858.50,90.15 M840.50,115.45 L858.50,115.45"/></g></g><g id="gnuplot_plot_20"><title>gnuplot_plot_20</title><g fill="none" stroke="currentColor" stroke-linecap="butt" stroke-linejoin="miter" stroke-width="1" color="#000"><g stroke="none" shape-rendering="crispEdges"><polygon fill="#009E73" fill-opacity=".25" points="924.69 505.75 951.23 505.75 951.23 502.14 924.69 502.14"/></g><path stroke="#009E73" d="M924.69,505.75 L951.23,505.75 L951.23,502.14 L924.69,502.14 L924.69,505.75 Z"/><path stroke="#009E73" d="M924.69,505.75 L951.23,505.75 M937.96,509.36 L937.96,505.75 M937.96,502.14 L937.96,498.52 M928.96,498.52 L946.96,498.52 M928.96,509.36 L946.96,509.36"/></g></g><g fill="none" stroke="currentColor" stroke-linecap="butt" stroke-linejoin="miter" stroke-width="1" color="#000"><path stroke="#000" d="M72.53,54.01 L72.53,559.96 L974.82,559.96 L974.82,54.01 L72.53,54.01 Z"/></g></g></svg>