<svg xmlns="http://www.w3.org/2000/svg" xmlns:xlink="http://www.w3.org/1999/xlink" width="1000" height="750" viewBox="0 0 1000 750"><title>Gnuplot</title><desc>Produced by GNUPLOT 5.4 patchlevel 2</desc><g id="gnuplot_canvas"><rect width="1000" height="750" x="0" y="0" fill="#fff"/><defs><circle id="gpDot" r=".5" stroke="currentColor" stroke-width=".5"/><path id="gpPt0" stroke="currentColor" stroke-width=".222" d="M-1,0 h2 M0,-1 v2"/><path id="gpPt1" stroke="currentColor" stroke-width=".222" d="M-1,-1 L1,1 M1,-1 L-1,1"/><path id="gpPt2" stroke="currentColor" stroke-width=".222" d="M-1,0 L1,0 M0,-1 L0,1 M-1,-1 L1,1 M-1,1 L1,-1"/><rect id="gpPt3" width="2" height="2" x="-1" y="-1" stroke="currentColor" stroke-width=".222"/><rect id="gpPt4" width="2" height="2" x="-1" y="-1" fill="currentColor" stroke="currentColor" stroke-width=".222"/><circle id="gpPt5" cx="0" cy="0" r="1" stroke="currentColor" stroke-width=".222"/><use id="gpPt6" fill="currentColor" stroke="none" xlink:href="#gpPt5"/><path id="gpPt7" stroke="currentColor" stroke-width=".222" d="M0,-1.33 L-1.33,0.67 L1.33,0.67 z"/><use id="gpPt8" fill="currentColor" stroke="none" xlink:href="#gpPt7"/><use id="gpPt9" stroke="currentColor" transform="rotate(180)" xlink:href="#gpPt7"/><use id="gpPt10" fill="currentColor" stroke="none" xlink:href="#gpPt9"/><use id="gpPt11" stroke="currentColor" transform="rotate(45)" xlink:href="#gpPt3"/><use id="gpPt12" fill="currentColor" stroke="none" xlink:href="#gpPt11"/><path id="gpPt13" stroke="currentColor" stroke-width=".222" d="M0,1.330 L1.265,0.411 L0.782,-1.067 L-0.782,-1.076 L-1.265,0.411 z"/><use id="gpPt14" fill="currentColor" stroke="none" xlink:href="#gpPt13"/><filter id="textbox" width="1" height="1" x="0" y="0" filterUnits="objectBoundingBox"><feFlood flood-color="#FFF" flood-opacity="1" result="bgnd"/><feComposite in="SourceGraphic" in2="bgnd" operator="atop"/></filter><filter id="greybox" width="1" height="1" x="0" y="0" filterUnits="objectBoundingBox"><feFlood flood-color="#d3d3d3" flood-opacity="1" result="grey"/><feComposite in="SourceGraphic" in2="grey" operator="atop"/></filter></defs><g fill="none" stroke="currentColor" stroke-linecap="butt" stroke-linejoin="miter" stroke-width="1" color="#000"><path stroke="#000" d="M72.53,559.96 L81.53,559.96 M974.82,559.96 L965.82,559.96"/><g fill="#000" stroke="none" font-family="Arial" font-size="12" text-anchor="end"><text transform="translate(64.14,563.86)">0</text></g></g><g fill="none" stroke="currentColor" stroke-linecap="butt" stroke-linejoin="miter" stroke-width="1" color="#000"><path stroke="#000" d="M72.53,487.68 L81.53,487.68 M974.82,487.68 L965.82,487.68"/><g fill="#000" stroke="none" font-family="Arial" font-size="12" text-anchor="end"><text transform="translate(64.14,491.58)">20</text></g></g><g fill="none" stroke="currentColor" stroke-linecap="butt" stroke-linejoin="miter" stroke-width="1" color="#000"><path stroke="#000" d="M72.53,415.40 L81.53,415.40 M974.82,415.40 L965.82,415.40"/><g fill="#000" stroke="none" font-family="Arial" font-size="12" text-anchor="end"><text transform="translate(64.14,419.30)">40</text></g></g><g fill="none" stroke="currentColor" stroke-linecap="butt" stroke-linejoin="miter" stroke-width="1" color="#000"><path stroke="#000" d="M72.53,343.12 L81.53,343.12 M974.82,343.12 L965.82,343.12"/><g fill="#000" stroke="none" font-family="Arial" font-size="12" text-anchor="end"><text transform="translate(64.14,347.02)">60</text></g></g><g fill="none" stroke="currentColor" stroke-linecap="butt" stroke-linejoin="miter" stroke-width="1" color="#000"><path stroke="#000" d="M72.53,270.85 L81.53,270.85 M974.82,270.85 L965.82,270.85"/><g fill="#000" stroke="none" font-family="Arial" font-size="12" text-anchor="end"><text transform="translate(64.14,274.75)">80</text></g></g><g fill="none" stroke="currentColor" stroke-linecap="butt" stroke-linejoin="miter" stroke-width="1" color="#000"><path stroke="#000" d="M72.53,198.57 L81.53,198.57 M974.82,198.57 L965.82,198.57"/><g fill="#000" stroke="none" font-family="Arial" font-size="12" text-anchor="end"><text transform="translate(64.14,202.47)">100</text></g></g><g fill="none" stroke="currentColor" stroke-linecap="butt" stroke-linejoin="miter" stroke-width="1" color="#000"><path stroke="#000" d="M72.53,126.29 L81.53,126.29 M974.82,126.29 L965.82,126.29"/><g fill="#000" stroke="none" font-family="Arial" font-size="12" text-anchor="end"><text transform="translate(64.14,130.19)">120</text></g></g><g fill="none" stroke="currentColor" stroke-linecap="butt" stroke-linejoin="miter" stroke-width="1" color="#000"><path stroke="#000" d="M72.53,54.01 L81.53,54.01 M974.82,54.01 L965.82,54.01"/><g fill="#000" stroke="none" font-family="Arial" font-size="12" text-anchor="end"><text transform="translate(64.14,57.91)">140</text></g></g><g fill="none" stroke="currentColor" stroke-linecap="butt" stroke-linejoin="miter" stroke-width="1" color="#000"><path stroke="#000" d="M127.08,559.96 M127.08,54.01"/><g fill="#000" stroke="none" font-family="Arial" font-size="12" text-anchor="start"><text transform="translate(124.32,571.11) rotate(-315)">cursor_motion</text></g></g><g fill="none" stroke="currentColor" stroke-linecap="butt" stroke-linejoin="miter" stroke-width="1" color="#000"><path stroke="#000" d="M215.54,559.96 M215.54,54.01"/><g fill="#000" stroke="none" font-family="Arial" font-size="12" text-anchor="start"><text transform="translate(212.78,571.11) rotate(-315)">dense_cells</text></g></g><g fill="none" stroke="currentColor" stroke-linecap="butt" stroke-linejoin="miter" stroke-width="1" color="#000"><path stroke="#000" d="M304.00,559.96 M304.00,54.01"/><g fill="#000" stroke="none" font-family="Arial" font-size="12" text-anchor="start"><text transform="translate(301.24,571.11) rotate(-315)">light_cells</text></g></g><g fill="none" stroke="currentColor" stroke-linecap="butt" stroke-linejoin="miter" stroke-width="1" color="#000"><path stroke="#000" d="M392.46,559.96 M392.46,54.01"/><g fill="#000" stroke="none" font-family="Arial" font-size="12" text-anchor="start"><text transform="translate(389.70,571.11) rotate(-315)">scrolling</text></g></g><g fill="none" stroke="currentColor" stroke-linecap="butt" stroke-linejoin="miter" stroke-width="1" color="#000"><path stroke="#000" d="M480.92,559.96 M480.92,54.01"/><g fill="#000" stroke="none" font-family="Arial" font-size="12" text-anchor="start"><text transform="translate(478.16,571.11) rotate(-315)">scrolling_bottom_region</text></g></g><g fill="none" stroke="currentColor" stroke-linecap="butt" stroke-linejoin="miter" stroke-width="1" color="#000"><path stroke="#000" d="M569.38,559.96 M569.38,54.01"/><g fill="#000" stroke="none" font-family="Arial" font-size="12" text-anchor="start"><text transform="translate(566.62,571.11) rotate(-315)">scrolling_bottom_small_region</text></g></g><g fill="none" stroke="currentColor" stroke-linecap="butt" stroke-linejoin="miter" stroke-width="1" color="#000"><path stroke="#000" d="M657.84,559.96 M657.84,54.01"/><g fill="#000" stroke="none" font-family="Arial" font-size="12" text-anchor="start"><text transform="translate(655.08,571.11) rotate(-315)">scrolling_fullscreen</text></g></g><g fill="none" stroke="currentColor" stroke-linecap="butt" stroke-linejoin="miter" stroke-width="1" color="#000"><path stroke="#000" d="M746.30,559.96 M746.30,54.01"/><g fill="#000" stroke="none" font-family="Arial" font-size="12" text-anchor="start"><text transform="translate(743.54,571.11) rotate(-315)">scrolling_top_region</text></g></g><g fill="none" stroke="currentColor" stroke-linecap="butt" stroke-linejoin="miter" stroke-width="1" color="#000"><path stroke="#000" d="M834.76,559.96 M834.76,54.01"/><g fill="#000" stroke="none" font-family="Arial" font-size="12" text-anchor="start"><text transform="translate(832.00,571.11) rotate(-315)">scrolling_top_small_region</text></g></g><g fill="none" stroke="currentColor" stroke-linecap="butt" stroke-linejoin="miter" stroke-width="1" color="#000"><path stroke="#000" d="M923.22,559.96 M923.22,54.01"/><g fill="#000" stroke="none" font-family="Arial" font-size="12" text-anchor="start"><text transform="translate(920.46,571.11) rotate(-315)">unicode</text></g></g><g fill="none" stroke="currentColor" stroke-linecap="butt" stroke-linejoin="miter" stroke-width="1" color="#000"><path stroke="#000" d="M72.53,54.01 L72.53,559.96 L974.82,559.96 L974.82,54.01 L72.53,54.01 Z"/><path stroke="#888" stroke-dasharray="1 2.5" d="M171.32,559.95 L171.32,54.00 M259.78,559.95 L259.78,54.00 M348.24,559.95 L348.24,54.00 M436.70,559.95 L436.70,54.00 M525.16,559.95 L525.16,54.00 M613.62,559.95 L613.62,54.00 M702.08,559.95 L702.08,54.00 M790.54,559.95 L790.54,54.00 M879.00,559.95 L879.00,54.00"/></g><g fill="none" stroke="currentColor" stroke-linecap="butt" stroke-linejoin="miter" stroke-width="1" color="#000"><g fill="#000" stroke="none" font-family="Arial" font-size="12" text-anchor="middle"><text transform="translate(19.18,306.99) rotate(270)">milliseconds (lower is better)</text></g></g><g id="gnuplot_plot_1"><title>gnuplot_plot_1</title><g fill="none" stroke="currentColor" stroke-linecap="butt" stroke-linejoin="miter" stroke-width="1" color="#000"><g stroke="none" shape-rendering="crispEdges"><polygon fill="#9400D3" fill-opacity=".25" points="1009.5 22.5 1052.06 22.5 1052.06 13.5 1009.5 13.5"/><polygon fill="#9400D3" fill-opacity=".25" points="99.07 415.4 125.61 415.4 125.61 415.4 99.07 415.4"/></g><path stroke="#9400D3" d="M99.07,415.40 L125.61,415.40 L99.07,415.40 Z"/><path stroke="#9400D3" d="M99.07,415.40 L125.61,415.40 M112.34,415.40 M103.34,415.40 L121.34,415.40 M103.34,415.40 L121.34,415.40"/></g></g><g id="gnuplot_plot_2"><title>gnuplot_plot_2</title><g fill="none" stroke="currentColor" stroke-linecap="butt" stroke-linejoin="miter" stroke-width="1" color="#000"><g stroke="none" shape-rendering="crispEdges"><polygon fill="#9400D3" fill-opacity=".25" points="187.53 133.52 214.07 133.52 214.07 129.9 187.53 129.9"/></g><path stroke="#9400D3" d="M187.53,133.52 L214.07,133.52 L214.07,129.90 L187.53,129.90 L187.53,133.52 Z"/><path stroke="#9400D3" d="M187.53,129.90 L214.07,129.90 M200.80,137.13 L200.80,133.52 M200.80,129.90 L200.80,126.29 M191.80,126.29 L209.80,126.29 M191.80,137.13 L209.80,137.13"/></g></g><g id="gnuplot_plot_3"><title>gnuplot_plot_3</title><g fill="none" stroke="currentColor" stroke-linecap="butt" stroke-linejoin="miter" stroke-width="1" color="#000"><g stroke="none" shape-rendering="crispEdges"><polygon fill="#9400D3" fill-opacity=".25" points="275.99 498.52 302.53 498.52 302.53 498.52 275.99 498.52"/></g><path stroke="#9400D3" d="M275.99,498.52 L302.53,498.52 L275.99,498.52 Z"/><path stroke="#9400D3" d="M275.99,498.52 L302.53,498.52 M289.26,498.52 M280.26,498.52 L298.26,498.52 M280.26,498.52 L298.26,498.52"/></g></g><g id="gnuplot_plot_4"><title>gnuplot_plot_4</title><g fill="none" stroke="currentColor" stroke-linecap="butt" stroke-linejoin="miter" stroke-width="1" color="#000"><g stroke="none" shape-rendering="crispEdges"><polygon fill="#9400D3" fill-opacity=".25" points="364.45 158.81 390.99 158.81 390.99 144.36 364.45 144.36"/></g><path stroke="#9400D3" d="M364.45,158.81 L390.99,158.81 L390.99,144.36 L364.45,144.36 L364.45,158.81 Z"/><path stroke="#9400D3" d="M364.45,151.59 L390.99,151.59 M377.72,173.27 L377.72,158.81 M377.72,144.36 L377.72,122.67 M368.72,122.67 L386.72,122.67 M368.72,173.27 L386.72,173.27"/></g></g><g id="gnuplot_plot_5"><title>gnuplot_plot_5</title><g fill="none" stroke="currentColor" stroke-linecap="butt" stroke-linejoin="miter" stroke-width="1" color="#000"><g stroke="none" shape-rendering="crispEdges"><polygon fill="#9400D3" fill-opacity=".25" points="452.91 155.2 479.45 155.2 479.45 140.74 452.91 140.74"/></g><path stroke="#9400D3" d="M452.91,155.20 L479.45,155.20 L479.45,140.74 L452.91,140.74 L452.91,155.20 Z"/><path stroke="#9400D3" d="M452.91,147.97 L479.45,147.97 M466.18,162.43 L466.18,155.20 M466.18,140.74 L466.18,119.06 M457.18,119.06 L475.18,119.06 M457.18,162.43 L475.18,162.43"/></g></g><g id="gnuplot_plot_6"><title>gnuplot_plot_6</title><g fill="none" stroke="currentColor" stroke-linecap="butt" stroke-linejoin="miter" stroke-width="1" color="#000"><g stroke="none" shape-rendering="crispEdges"><polygon fill="#9400D3" fill-opacity=".25" points="541.37 147.97 567.91 147.97 567.91 133.52 541.37 133.52"/></g><path stroke="#9400D3" d="M541.37,147.97 L567.91,147.97 L567.91,133.52 L541.37,133.52 L541.37,147.97 Z"/><path stroke="#9400D3" d="M541.37,140.74 L567.91,140.74 M554.64,155.20 L554.64,147.97 M554.64,133.52 L554.64,115.45 M545.64,115.45 L563.64,115.45 M545.64,155.20 L563.64,155.20"/></g></g><g id="gnuplot_plot_7"><title>gnuplot_plot_7</title><g fill="none" stroke="currentColor" stroke-linecap="butt" stroke-linejoin="miter" stroke-width="1" color="#000"><g stroke="none" shape-rendering="crispEdges"><polygon fill="#9400D3" fill-opacity=".25" points="629.83 516.59 656.37 516.59 656.37 512.98 629.83 512.98"/></g><path stroke="#9400D3" d="M629.83,516.59 L656.37,516.59 L656.37,512.98 L629.83,512.98 L629.83,516.59 Z"/><path stroke="#9400D3" d="M629.83,516.59 L656.37,516.59 M643.10,520.21 L643.10,516.59 M643.10,512.98 L643.10,509.36 M634.10,509.36 L652.10,509.36 M634.10,520.21 L652.10,520.21"/></g></g><g id="gnuplot_plot_8"><title>gnuplot_plot_8</title><g fill="none" stroke="currentColor" stroke-linecap="butt" stroke-linejoin="miter" stroke-width="1" color="#000"><g stroke="none" shape-rendering="crispEdges"><polygon fill="#9400D3" fill-opacity=".25" points="718.29 155.2 744.83 155.2 744.83 144.36 718.29 144.36"/></g><path stroke="#9400D3" d="M718.29,155.20 L744.83,155.20 L744.83,144.36 L718.29,144.36 L718.29,155.20 Z"/><path stroke="#9400D3" d="M718.29,151.59 L744.83,151.59 M731.56,166.04 L731.56,155.20 M731.56,144.36 L731.56,129.90 M722.56,129.90 L740.56,129.90 M722.56,166.04 L740.56,166.04"/></g></g><g id="gnuplot_plot_9"><title>gnuplot_plot_9</title><g fill="none" stroke="currentColor" stroke-linecap="butt" stroke-linejoin="miter" stroke-width="1" color="#000"><g stroke="none" shape-rendering="crispEdges"><polygon fill="#9400D3" fill-opacity=".25" points="806.75 151.59 833.29 151.59 833.29 137.13 806.75 137.13"/></g><path stroke="#9400D3" d="M806.75,151.59 L833.29,151.59 L833.29,137.13 L806.75,137.13 L806.75,151.59 Z"/><path stroke="#9400D3" d="M806.75,144.36 L833.29,144.36 M820.02,158.81 L820.02,151.59 M820.02,137.13 L820.02,115.45 M811.02,115.45 L829.02,115.45 M811.02,158.81 L829.02,158.81"/></g></g><g id="gnuplot_plot_10"><title>gnuplot_plot_10</title><g fill="none" stroke="currentColor" stroke-linecap="butt" stroke-linejoin="miter" stroke-width="1" color="#000"><g stroke="none" shape-rendering="crispEdges"><polygon fill="#9400D3" fill-opacity=".25" points="895.21 502.14 921.75 502.14 921.75 498.52 895.21 498.52"/></g><path stroke="#9400D3" d="M895.21,502.14 L921.75,502.14 L921.75,498.52 L895.21,498.52 L895.21,502.14 Z"/><path stroke="#9400D3" d="M895.21,502.14 L921.75,502.14 M908.48,505.75 L908.48,502.14 M908.48,498.52 L908.48,494.91 M899.48,494.91 L917.48,494.91 M899.48,505.75 L917.48,505.75"/></g></g><g id="gnuplot_plot_11"><title>gnuplot_plot_11</title><g fill="none" stroke="currentColor" stroke-linecap="butt" stroke-linejoin="miter" stroke-width="1" color="#000"><g stroke="none" shape-rendering="crispEdges"><polygon fill="#009E73" fill-opacity=".25" points="1009.5 40.5 1052.06 40.5 1052.06 31.5 1009.5 31.5"/><polygon fill="#009E73" fill-opacity=".25" points="128.55 419.02 155.09 419.02 155.09 415.4 128.55 415.4"/></g><path stroke="#009E73" d="M128.55,419.02 L155.09,419.02 L155.09,415.40 L128.55,415.40 L128.55,419.02 Z"/><path stroke="#009E73" d="M128.55,415.40 L155.09,415.40 M141.82,422.63 L141.82,419.02 M141.82,415.40 L141.82,411.79 M132.82,411.79 L150.82,411.79 M132.82,422.63 L150.82,422.63"/></g></g><g id="gnuplot_plot_12"><title>gnuplot_plot_12</title><g fill="none" stroke="currentColor" stroke-linecap="butt" stroke-linejoin="miter" stroke-width="1" color="#000"><g stroke="none" shape-rendering="crispEdges"><polygon fill="#009E73" fill-opacity=".25" points="217.01 140.74 243.55 140.74 243.55 137.13 217.01 137.13"/></g><path stroke="#009E73" d="M217.01,140.74 L243.55,140.74 L243.55,137.13 L217.01,137.13 L217.01,140.74 Z"/><path stroke="#009E73" d="M217.01,137.13 L243.55,137.13 M230.28,140.74 M230.28,137.13 L230.28,133.52 M221.28,133.52 L239.28,133.52 M221.28,140.74 L239.28,140.74"/></g></g><g id="gnuplot_plot_13"><title>gnuplot_plot_13</title><g fill="none" stroke="currentColor" stroke-linecap="butt" stroke-linejoin="miter" stroke-width="1" color="#000"><g stroke="none" shape-rendering="crispEdges"><polygon fill="#009E73" fill-opacity=".25" points="305.47 498.52 332.01 498.52 332.01 498.52 305.47 498.52"/></g><path stroke="#009E73" d="M305.47,498.52 L332.01,498.52 L305.47,498.52 Z"/><path stroke="#009E73" d="M305.47,498.52 L332.01,498.52 M318.74,498.52 M309.74,498.52 L327.74,498.52 M309.74,498.52 L327.74,498.52"/></g></g><g id="gnuplot_plot_14"><title>gnuplot_plot_14</title><g fill="none" stroke="currentColor" stroke-linecap="butt" stroke-linejoin="miter" stroke-width="1" color="#000"><g stroke="none" shape-rendering="crispEdges"><polygon fill="#009E73" fill-opacity=".25" points="393.93 176.88 420.47 176.88 420.47 166.04 393.93 166.04"/></g><path stroke="#009E73" d="M393.93,176.88 L420.47,176.88 L420.47,166.04 L393.93,166.04 L393.93,176.88 Z"/><path stroke="#009E73" d="M393.93,173.27 L420.47,173.27 M407.20,187.73 L407.20,176.88 M407.20,166.04 L407.20,151.59 M398.20,151.59 L416.20,151.59 M398.20,187.73 L416.20,187.73"/></g></g><g id="gnuplot_plot_15"><title>gnuplot_plot_15</title><g fill="none" stroke="currentColor" stroke-linecap="butt" stroke-linejoin="miter" stroke-width="1" color="#000"><g stroke="none" shape-rendering="crispEdges"><polygon fill="#009E73" fill-opacity=".25" points="482.39 184.11 508.93 184.11 508.93 176.88 482.39 176.88"/></g><path stroke="#009E73" d="M482.39,184.11 L508.93,184.11 L508.93,176.88 L482.39,176.88 L482.39,184.11 Z"/><path stroke="#009E73" d="M482.39,180.50 L508.93,180.50 M495.66,187.73 L495.66,184.11 M495.66,176.88 L495.66,166.04 M486.66,166.04 L504.66,166.04 M486.66,187.73 L504.66,187.73"/></g></g><g id="gnuplot_plot_16"><title>gnuplot_plot_16</title><g fill="none" stroke="currentColor" stroke-linecap="butt" stroke-linejoin="miter" stroke-width="1" color="#000"><g stroke="none" shape-rendering="crispEdges"><polygon fill="#009E73" fill-opacity=".25" points="570.85 162.43 597.39 162.43 597.39 147.97 570.85 147.97"/></g><path stroke="#009E73" d="M570.85,162.43 L597.39,162.43 L597.39,147.97 L570.85,147.97 L570.85,162.43 Z"/><path stroke="#009E73" d="M570.85,155.20 L597.39,155.20 M584.12,173.27 L584.12,162.43 M584.12,147.97 L584.12,129.90 M575.12,129.90 L593.12,129.90 M575.12,173.27 L593.12,173.27"/></g></g><g id="gnuplot_plot_17"><title>gnuplot_plot_17</title><g fill="none" stroke="currentColor" stroke-linecap="butt" stroke-linejoin="miter" stroke-width="1" color="#000"><g stroke="none" shape-rendering="crispEdges"><polygon fill="#009E73" fill-opacity=".25" points="659.31 516.59 685.85 516.59 685.85 512.98 659.31 512.98"/></g><path stroke="#009E73" d="M659.31,516.59 L685.85,516.59 L685.85,512.98 L659.31,512.98 L659.31,516.59 Z"/><path stroke="#009E73" d="M659.31,516.59 L685.85,516.59 M672.58,520.21 L672.58,516.59 M672.58,512.98 L672.58,509.36 M663.58,509.36 L681.58,509.36 M663.58,520.21 L681.58,520.21"/></g></g><g id="gnuplot_plot_18"><title>gnuplot_plot_18</title><g fill="none" stroke="currentColor" stroke-linecap="butt" stroke-linejoin="miter" stroke-width="1" color="#000"><g stroke="none" shape-rendering="crispEdges"><polygon fill="#009E73" fill-opacity=".25" points="747.77 176.88 774.31 176.88 774.31 162.43 747.77 162.43"/></g><path stroke="#009E73" d="M747.77,176.88 L774.31,176.88 L774.31,162.43 L747.77,162.43 L747.77,176.88 Z"/><path stroke="#009E73" d="M747.77,173.27 L774.31,173.27 M761.04,184.11 L761.04,176.88 M761.04,162.43 L761.04,144.36 M752.04,144.36 L770.04,144.36 M752.04,184.11 L770.04,184.11"/></g></g><g id="gnuplot_plot_19"><title>gnuplot_plot_19</title><g fill="none" stroke="currentColor" stroke-linecap="butt" stroke-linejoin="miter" stroke-width="1" color="#000"><g stroke="none" shape-rendering="crispEdges"><polygon fill="#009E73" fill-opacity=".25" points="836.23 162.43 862.77 162.43 862.77 151.59 836.23 151.59"/></g><path stroke="#009E73" d="M836.23,162.43 L862.77,162.43 L862.77,151.59 L836.23,151.59 L836.23,162.43 Z"/><path stroke="#009E73" d="M836.23,158.81 L862.77,158.81 M849.50,169.66 L849.50,162.43 M849.50,151.59 L849.50,137.13 M840.50,137.13 L858.50,137.13 M840.50,169.66 L858.50,169.66"/></g></g><g id="gnuplot_plot_20"><title>gnuplot_plot_20</title><g fill="none" stroke="currentColor" stroke-linecap="butt" stroke-linejoin="miter" stroke-width="1" color="#000"><g stroke="none" shape-rendering="crispEdges"><polygon fill="#009E73" fill-opacity=".25" points="924.69 502.14 951.23 502.14 951.23 498.52 924.69 498.52"/></g><path stroke="#009E73" d="M924.69,502.14 L951.23,502.14 L951.23,498.52 L924.69,498.52 L924.69,502.14 Z"/><path stroke="#009E73" d="M924.69,502.14 L951.23,502.14 M937.96,505.75 L937.96,502.14 M937.96,498.52 L937.96,494.91 M928.96,494.91 L946.96,494.91 M928.96,505.75 L946.96,505.75"/></g></g><g fill="none" stroke="currentColor" stroke-linecap="butt" stroke-linejoin="miter" stroke-width="1" color="#000"><path stroke="#000" d="M72.53,54.01 L72.53,559.96 L974.82,559.96 L974.82,54.01 L72.53,54.01 Z"/></g></g></svg>